<?xml version="1.0" standalone="no"?>
<!DOCTYPE svg PUBLIC "-//W3C//DTD SVG 20010904//EN"
 "http://www.w3.org/TR/2001/REC-SVG-20010904/DTD/svg10.dtd">
<svg version="1.0" xmlns="http://www.w3.org/2000/svg"
 width="1670.000000pt" height="940.000000pt" viewBox="0 0 1670.000000 940.000000"
 preserveAspectRatio="xMidYMid meet">

<g transform="translate(0.000000,940.000000) scale(0.100000,-0.100000)"
fill="#000000" stroke="none">
<path d="M955 6906 c-74 -18 -169 -73 -219 -126 -53 -56 -99 -145 -115 -218
-8 -38 -11 -561 -11 -1865 0 -1976 -3 -1862 56 -1979 56 -110 184 -203 313
-228 75 -14 14647 -14 14722 0 173 33 320 173 358 341 14 61 14 3677 0 3738
-38 166 -180 305 -347 340 -80 17 -14688 14 -14757 -3z m2835 -669 c0 -88 -31
-202 -82 -300 -95 -183 -292 -317 -465 -317 l-53 0 0 48 c0 114 63 279 145
385 83 105 230 199 360 231 98 24 95 25 95 -47z m4970 -377 l0 -400 -60 0 -60
0 0 400 0 400 60 0 60 0 0 -400z m1990 53 c0 -192 3 -372 6 -400 l7 -53 -57 0
-56 0 0 33 c0 46 -9 51 -33 20 -48 -61 -164 -81 -244 -42 -88 43 -135 134
-134 262 1 174 98 287 246 287 47 0 119 -30 134 -57 8 -13 10 22 11 140 l0
157 60 0 60 0 0 -347z m2810 181 l0 -167 22 28 c47 61 147 81 225 46 89 -41
116 -137 111 -396 l-3 -140 -62 -3 -62 -3 -3 201 -3 202 -34 30 c-30 26 -39
30 -78 25 -24 -2 -53 -13 -65 -23 -41 -37 -48 -74 -48 -259 l0 -175 -60 0 -60
0 0 400 0 400 60 0 60 0 0 -166z m-7586 105 c160 -50 233 -172 224 -374 -5
-119 -32 -189 -97 -254 -90 -90 -212 -121 -453 -113 l-68 2 0 375 0 374 33 6
c112 18 275 11 361 -16z m7166 -124 l0 -65 65 0 65 0 0 -45 0 -45 -65 0 -65 0
0 -159 c0 -147 2 -160 21 -186 18 -22 28 -26 60 -23 l37 3 4 -43 c3 -39 0 -45
-20 -53 -65 -25 -157 0 -196 54 -19 26 -21 47 -26 215 l-5 187 -37 3 c-38 3
-38 4 -38 48 l0 44 40 0 40 0 0 49 c0 49 0 49 43 64 75 27 77 25 77 -48z
m-6386 -89 c56 -33 98 -88 116 -150 17 -61 9 -190 -14 -236 -44 -86 -124 -140
-221 -147 -73 -6 -129 8 -181 45 -121 88 -141 318 -36 434 61 67 117 89 218
84 56 -2 82 -9 118 -30z m1563 15 c52 -24 89 -78 103 -150 5 -30 10 -130 10
-222 l0 -169 -65 0 -65 0 0 191 c0 160 -3 195 -17 219 -40 69 -140 65 -189 -7
-17 -25 -19 -51 -22 -215 l-4 -188 -59 0 -59 0 0 275 0 275 49 0 c52 0 61 -8
61 -56 0 -24 0 -24 34 8 61 58 147 73 223 39z m1019 -9 c48 -24 100 -80 122
-131 10 -23 16 -67 16 -121 1 -74 -3 -93 -27 -142 -47 -95 -132 -148 -240
-148 -72 0 -122 18 -171 62 -66 57 -90 115 -90 218 -1 74 3 93 27 142 31 64
81 110 142 133 56 21 168 14 221 -13z m587 17 c21 -5 53 -24 72 -41 53 -46 64
-99 67 -321 l3 -188 -55 3 c-52 3 -55 5 -60 32 -5 27 -6 28 -20 11 -45 -54
-157 -70 -230 -32 -54 27 -80 73 -80 142 0 110 79 175 236 195 42 6 79 12 82
14 10 11 -22 78 -44 93 -30 19 -134 15 -181 -9 l-33 -16 -11 39 c-7 21 -9 42
-6 46 4 3 30 14 59 24 60 21 144 24 201 8z m1733 -17 c48 -24 100 -80 122
-131 10 -23 16 -67 16 -121 1 -74 -3 -93 -27 -142 -47 -95 -132 -148 -240
-148 -72 0 -122 18 -171 62 -66 57 -90 115 -90 218 -1 74 3 93 27 142 51 103
136 151 257 144 40 -2 81 -11 106 -24z m677 14 c43 -17 93 -76 106 -123 6 -21
11 -125 11 -230 l0 -193 -60 0 -60 0 0 183 c0 153 -3 187 -18 217 -39 79 -136
80 -189 1 -22 -32 -23 -43 -23 -217 l0 -184 -60 0 -60 0 0 223 c0 122 -3 246
-6 275 l-7 52 57 0 56 0 0 -40 c0 -47 5 -49 33 -14 43 56 150 80 220 50z
m2112 -5 c81 -37 135 -133 135 -243 l0 -48 -186 0 -186 0 6 -37 c16 -86 76
-128 180 -125 39 0 85 6 103 11 34 10 33 11 47 -50 5 -23 2 -27 -35 -38 -177
-53 -345 5 -396 137 -29 75 -24 195 11 266 30 61 84 113 137 132 51 19 138 16
184 -5z m-7281 -143 c20 -84 42 -182 50 -218 12 -60 14 -62 21 -35 4 17 28
100 52 185 25 85 50 170 55 188 9 32 10 33 60 30 l51 -3 43 -150 c24 -82 49
-176 56 -207 7 -32 15 -58 18 -58 3 0 11 30 18 68 7 37 30 130 50 207 l37 140
58 3 c31 2 57 -1 57 -5 1 -4 -37 -128 -82 -275 l-83 -268 -56 0 -56 0 -46 158
c-26 86 -52 179 -58 206 l-12 50 -17 -70 c-9 -38 -36 -131 -60 -206 l-43 -138
-57 0 -57 0 -27 93 c-14 50 -50 174 -80 275 l-54 182 63 0 63 0 36 -152z
m-3246 -294 c115 -24 239 -92 327 -179 41 -41 75 -80 75 -88 0 -8 -18 -27 -41
-43 -109 -75 -223 -243 -254 -375 -17 -76 -19 -202 -4 -285 32 -173 162 -349
320 -434 32 -17 59 -36 59 -42 0 -20 -72 -193 -108 -258 -65 -119 -196 -304
-267 -376 -49 -49 -91 -81 -139 -104 -61 -30 -78 -34 -150 -34 -63 1 -97 7
-156 29 -226 84 -208 79 -325 79 -116 1 -123 -1 -340 -85 -45 -18 -81 -23
-145 -24 -75 0 -92 4 -143 29 -137 70 -338 326 -458 582 -159 339 -213 733
-139 1025 88 348 375 591 700 592 97 0 125 -6 308 -74 154 -57 192 -60 295
-23 327 119 389 128 585 88z m6659 -668 c45 -15 84 -30 87 -34 3 -5 -9 -52
-26 -106 -25 -81 -33 -96 -47 -90 -96 43 -161 57 -261 58 -94 1 -111 -2 -161
-25 -69 -33 -110 -82 -116 -143 -8 -69 5 -113 44 -157 45 -50 84 -73 250 -147
137 -62 241 -128 288 -184 51 -60 85 -147 91 -234 18 -229 -115 -404 -357
-470 -86 -24 -316 -24 -410 -1 -70 17 -173 59 -182 74 -4 7 40 188 49 202 2 1
28 -9 59 -24 132 -62 324 -84 433 -49 99 32 161 111 162 205 0 132 -63 196
-283 288 -63 26 -141 64 -174 84 -78 47 -157 133 -191 204 -24 51 -27 70 -27
158 0 88 3 107 27 158 38 81 79 129 148 176 54 35 144 72 210 85 14 2 88 3
165 1 118 -2 153 -7 222 -29z m-4337 10 c0 -3 110 -345 245 -761 135 -416 245
-763 245 -771 0 -12 -21 -14 -127 -12 l-128 3 -22 65 c-12 36 -45 138 -74 228
l-51 162 -251 -2 -251 -3 -58 -190 c-32 -104 -62 -207 -68 -227 l-11 -38 -124
0 c-104 0 -125 2 -125 15 0 10 430 1358 485 1523 3 9 44 12 160 12 85 0 155
-2 155 -4z m5040 -291 l0 -135 135 0 135 0 0 -95 0 -95 -135 0 -135 0 0 -312
c0 -286 2 -317 19 -355 27 -59 65 -76 157 -71 l74 3 0 -70 c0 -38 3 -80 6 -92
5 -19 0 -23 -38 -34 -23 -7 -88 -13 -144 -13 -93 -1 -105 1 -159 29 -69 35
-117 92 -142 168 -14 44 -17 106 -21 400 l-4 347 -79 0 -79 0 0 95 0 95 80 0
79 0 3 102 3 102 105 33 c58 17 113 32 123 32 15 1 17 -12 17 -134z m-3545
-153 c126 -59 223 -188 261 -348 22 -90 22 -275 0 -366 -25 -107 -73 -194
-146 -269 -101 -102 -225 -148 -368 -136 -116 9 -198 50 -254 124 l-28 37 0
-297 0 -297 -125 0 -125 0 0 739 c0 406 -3 759 -6 785 l-7 46 110 0 110 0 7
-37 c3 -21 6 -59 6 -85 0 -27 5 -48 10 -48 6 0 10 4 10 8 0 16 88 100 131 125
72 42 142 57 250 54 83 -3 106 -8 164 -35z m1278 0 c127 -59 222 -183 264
-342 23 -87 22 -280 -1 -374 -50 -207 -198 -363 -375 -396 -162 -30 -324 18
-396 120 l-25 35 0 -298 0 -297 -125 0 -125 0 0 763 c0 419 -3 772 -6 785 -6
22 -6 22 104 22 l110 0 6 -31 c3 -17 6 -56 6 -85 0 -30 2 -54 4 -54 3 0 29 25
58 56 96 102 183 135 338 131 83 -2 104 -7 163 -35z m3372 23 c184 -47 312
-176 371 -371 14 -44 18 -92 18 -189 0 -119 -3 -138 -31 -217 -87 -249 -294
-383 -561 -365 -244 16 -421 169 -478 413 -22 95 -15 283 15 375 56 174 200
313 367 353 80 19 226 20 299 1z m1195 -102 l0 -118 -67 0 c-86 -1 -131 -16
-177 -61 -86 -84 -96 -137 -96 -530 l0 -315 -122 3 -123 3 -2 558 -3 557 104
0 103 0 7 -46 c3 -26 6 -74 6 -107 l0 -61 36 60 c42 70 67 98 113 126 53 33
101 47 164 48 l57 0 0 -117z m791 101 c155 -45 269 -183 304 -367 15 -80 20
-194 9 -234 l-6 -23 -371 0 -370 0 6 -52 c14 -114 87 -207 196 -250 77 -30
251 -29 365 1 44 12 81 19 83 17 2 -2 12 -39 23 -82 13 -58 15 -81 7 -86 -29
-18 -176 -50 -266 -57 -231 -21 -400 32 -516 161 -97 108 -140 249 -132 433
11 271 157 479 377 541 66 18 226 17 291 -2z"/>
<path d="M10425 5898 c-84 -65 -87 -251 -5 -323 17 -15 36 -20 80 -20 101 0
135 55 129 209 -4 87 -4 88 -41 122 -32 29 -45 34 -87 34 -34 0 -56 -6 -76
-22z"/>
<path d="M5712 6122 c-9 -7 -12 -71 -10 -288 l3 -279 80 1 c99 1 146 16 197
62 64 58 81 102 86 220 4 95 2 106 -23 158 -33 66 -85 108 -156 123 -59 13
-159 14 -177 3z"/>
<path d="M6570 5923 c-53 -21 -100 -110 -100 -188 0 -61 28 -132 67 -165 33
-29 41 -32 85 -28 28 3 57 13 69 24 85 77 85 261 0 338 -20 19 -93 30 -121 19z"/>
<path d="M9142 5910 c-47 -29 -72 -89 -72 -175 0 -122 54 -195 144 -195 31 0
45 7 76 38 65 64 80 179 35 268 -40 81 -113 106 -183 64z"/>
<path d="M9813 5719 c-99 -29 -93 -179 7 -179 74 0 120 53 120 140 l0 50 -47
-1 c-27 0 -62 -5 -80 -10z"/>
<path d="M11464 5911 c-99 -60 -100 -291 -2 -351 101 -62 207 28 208 175 0
149 -105 238 -206 176z"/>
<path d="M14307 5930 c-40 -12 -57 -29 -78 -75 -30 -66 -32 -65 106 -65 l125
0 0 25 c0 79 -78 138 -153 115z"/>
<path d="M6040 4569 c-18 -73 -63 -227 -100 -343 l-67 -211 200 -3 c110 -1
202 -1 204 2 2 2 -29 109 -71 238 -41 128 -86 280 -101 338 -15 58 -28 106
-30 108 -1 1 -17 -57 -35 -129z"/>
<path d="M7365 4276 c-58 -26 -109 -80 -139 -145 -19 -41 -21 -64 -21 -221 0
-171 1 -176 27 -226 30 -56 84 -109 134 -130 52 -22 169 -18 221 7 57 27 117
98 144 168 27 71 37 237 19 320 -24 110 -92 202 -172 236 -57 23 -153 19 -213
-9z"/>
<path d="M8642 4274 c-118 -59 -162 -158 -162 -363 0 -145 13 -205 60 -269 51
-70 101 -96 192 -101 104 -4 153 14 212 80 73 82 90 138 91 304 0 136 -1 142
-31 205 -56 118 -130 169 -245 170 -50 0 -77 -6 -117 -26z"/>
<path d="M12160 4311 c-146 -45 -233 -218 -217 -435 19 -250 172 -397 359
-342 239 69 298 543 91 725 -61 55 -155 75 -233 52z"/>
<path d="M14105 4306 c-28 -13 -64 -38 -80 -57 -34 -41 -71 -120 -80 -171 l-7
-38 256 0 256 0 0 39 c0 47 -23 113 -56 164 -54 81 -188 111 -289 63z"/>
</g>
</svg>
