<?xml version="1.0" standalone="no"?>
<!DOCTYPE svg PUBLIC "-//W3C//DTD SVG 20010904//EN"
 "http://www.w3.org/TR/2001/REC-SVG-20010904/DTD/svg10.dtd">
<svg version="1.0" xmlns="http://www.w3.org/2000/svg"
 width="4491.000000pt" height="1552.000000pt" viewBox="0 0 4491.000000 1552.000000"
 preserveAspectRatio="xMidYMid meet">

<g transform="translate(0.000000,1552.000000) scale(0.100000,-0.100000)"
fill="#000000" stroke="none">
<path d="M4270 14193 c-318 -54 -517 -124 -755 -266 -369 -220 -634 -549 -763
-947 -78 -241 -72 204 -72 -5155 0 -5207 -3 -4899 54 -5096 51 -176 109 -303
204 -449 287 -442 784 -747 1328 -815 105 -13 2278 -15 18189 -15 15911 0
18084 2 18189 15 196 24 441 97 608 181 467 235 796 621 929 1091 51 183 49
-83 49 5090 0 5380 6 4921 -71 5158 -193 596 -697 1031 -1371 1182 l-123 28
-18185 1 c-10002 1 -18196 -1 -18210 -3z m10098 -2166 c46 -9 96 -23 110 -32
15 -8 43 -21 62 -29 38 -17 52 -25 120 -70 84 -56 120 -90 120 -114 0 -16 -20
-44 -59 -83 -70 -71 -95 -75 -148 -24 -47 45 -128 90 -223 122 -96 32 -280 37
-345 9 -22 -9 -59 -21 -81 -26 -49 -11 -91 -36 -179 -106 -125 -100 -202 -217
-229 -349 -40 -196 -40 -180 -12 -315 36 -176 77 -253 200 -373 49 -48 145
-117 162 -117 5 0 27 -9 48 -21 61 -33 219 -51 330 -39 233 27 427 166 497
358 27 74 33 106 25 137 l-6 25 -295 0 -295 0 -10 26 c-14 37 -12 167 3 188
11 16 42 17 414 14 371 -3 404 -4 420 -21 15 -15 18 -36 18 -140 0 -239 -82
-437 -241 -586 -84 -79 -243 -181 -281 -181 -7 0 -41 -10 -75 -22 -57 -21 -81
-23 -258 -23 -175 0 -201 2 -250 21 -30 12 -71 24 -91 28 -21 4 -42 13 -49 21
-7 8 -18 15 -25 15 -31 0 -183 117 -262 201 -159 171 -223 346 -223 614 0 193
19 286 81 409 65 129 91 166 177 248 104 99 151 129 322 206 25 11 72 24 105
28 33 3 67 10 75 15 23 14 254 4 348 -14z m7455 -1 c48 -9 102 -26 120 -36 18
-11 42 -20 53 -20 12 0 27 -7 35 -16 7 -9 27 -23 45 -32 88 -47 198 -149 270
-252 40 -58 94 -159 94 -177 0 -7 7 -25 16 -38 22 -33 34 -117 41 -276 9 -222
-22 -367 -110 -510 -54 -89 -80 -119 -160 -196 -90 -85 -159 -136 -199 -148
-12 -4 -30 -13 -38 -20 -8 -7 -53 -25 -100 -40 -77 -26 -101 -29 -255 -32
-135 -3 -181 -1 -225 12 -30 9 -73 21 -95 26 -52 14 -149 62 -200 99 -22 16
-56 40 -75 53 -33 23 -93 86 -133 138 -10 13 -31 41 -47 63 -17 21 -30 44 -30
51 0 7 -9 23 -19 37 -11 13 -23 38 -27 54 -3 16 -13 39 -20 52 -22 33 -48 214
-48 322 0 116 20 251 44 305 10 22 21 51 25 65 16 54 125 222 179 275 86 84
164 139 256 181 19 8 53 24 76 35 22 10 54 19 70 20 16 0 52 7 79 14 68 18
267 13 378 -9z m-5543 -42 c13 -34 13 -150 0 -175 -10 -18 -25 -19 -380 -19
-323 0 -371 -2 -384 -16 -14 -14 -16 -48 -14 -267 l3 -252 335 -5 c184 -3 343
-9 353 -14 14 -7 17 -22 17 -87 0 -126 22 -119 -359 -119 -319 0 -320 0 -335
-22 -13 -19 -16 -60 -16 -246 0 -135 4 -231 10 -243 10 -18 25 -19 380 -19
l369 0 15 -22 c21 -30 23 -180 2 -197 -9 -8 -151 -10 -507 -9 l-494 3 -3 855
c-1 470 0 861 3 868 3 9 113 12 500 12 l495 0 10 -26z m1360 16 c12 -7 15 -30
15 -100 0 -70 -3 -93 -15 -100 -8 -5 -105 -10 -215 -10 -165 0 -204 -3 -223
-16 l-22 -15 0 -729 0 -729 -22 -15 c-16 -11 -46 -16 -105 -16 -71 0 -84 3
-93 19 -7 13 -10 266 -10 750 0 573 -3 732 -12 738 -7 4 -110 9 -228 11 -130
2 -220 8 -227 14 -16 13 -18 160 -3 189 10 18 27 19 578 19 340 0 573 -4 582
-10z m1005 -860 l0 -865 -105 -3 c-90 -2 -107 0 -117 15 -16 21 -19 1656 -3
1698 l10 26 107 -3 108 -3 0 -865z m1389 854 c12 -11 16 -36 16 -90 0 -121 14
-114 -231 -114 -126 0 -218 -4 -230 -10 -19 -10 -19 -29 -19 -745 l0 -734 -22
-15 c-16 -12 -47 -16 -110 -16 -76 0 -89 2 -98 19 -7 13 -10 265 -10 748 0
554 -3 732 -12 741 -9 9 -75 12 -234 12 -193 0 -223 2 -228 16 -3 9 -6 51 -6
94 0 43 3 85 6 94 6 14 66 16 584 16 513 0 580 -2 594 -16z m3038 -28 c18 -25
44 -64 58 -87 14 -23 48 -78 77 -123 28 -45 73 -115 99 -156 26 -41 58 -93 72
-115 14 -22 37 -58 50 -80 14 -22 36 -56 49 -76 13 -19 23 -40 23 -46 0 -6 7
-16 16 -24 14 -12 33 -43 76 -123 9 -18 23 -38 32 -45 9 -8 16 -18 16 -23 0
-6 10 -24 23 -41 26 -38 35 -52 64 -104 12 -21 41 -69 65 -105 24 -36 48 -74
54 -83 31 -54 34 -9 35 608 1 337 4 623 8 637 7 24 10 25 101 28 52 1 102 -2
110 -8 13 -8 15 -116 17 -852 2 -527 -1 -849 -7 -858 -7 -12 -33 -15 -126 -15
-105 0 -118 2 -131 20 -28 40 -144 223 -218 346 -6 9 -19 29 -29 45 -11 16
-30 45 -43 65 -12 19 -23 40 -23 45 0 6 -9 19 -20 29 -11 10 -20 24 -20 31 0
7 -11 26 -25 42 -14 17 -25 33 -25 38 0 4 -11 25 -25 46 -24 36 -47 74 -98
156 -51 82 -76 120 -120 188 -26 39 -47 75 -47 81 0 6 -7 17 -16 24 -9 7 -26
32 -38 54 -37 71 -68 115 -81 115 -7 0 -15 -17 -19 -37 -3 -21 -6 -316 -6
-655 0 -600 -1 -618 -19 -628 -28 -14 -184 -13 -199 2 -9 9 -12 211 -12 847 0
460 3 846 6 859 6 21 10 22 135 22 l128 0 33 -44z m-16703 -2243 c14 -11 64
-38 111 -62 125 -63 154 -79 168 -91 7 -6 27 -16 45 -22 17 -6 41 -19 52 -28
11 -10 31 -21 45 -25 14 -4 36 -16 49 -26 13 -11 29 -19 35 -19 7 0 27 -11 45
-24 19 -14 46 -28 62 -31 15 -4 33 -13 39 -20 7 -8 45 -31 85 -51 41 -20 79
-42 85 -49 6 -8 25 -17 41 -20 16 -4 35 -12 42 -19 7 -7 33 -23 57 -34 25 -12
52 -26 60 -32 8 -5 26 -15 40 -21 14 -5 48 -23 75 -39 28 -16 68 -38 90 -49
22 -12 47 -25 55 -31 8 -5 26 -15 40 -21 14 -6 48 -24 75 -40 28 -16 69 -38
92 -49 23 -11 45 -25 48 -30 3 -5 24 -15 45 -21 22 -7 40 -16 40 -21 0 -5 19
-17 43 -28 23 -11 83 -42 132 -70 50 -27 113 -61 140 -75 28 -14 68 -36 90
-50 22 -13 51 -29 65 -35 14 -7 36 -18 50 -26 14 -7 43 -23 65 -34 22 -11 63
-33 90 -49 28 -16 61 -34 75 -40 14 -6 32 -16 40 -21 8 -6 33 -20 55 -31 22
-12 63 -34 90 -49 28 -16 68 -38 90 -50 22 -11 81 -43 130 -71 50 -27 113 -61
140 -75 47 -23 87 -45 180 -100 22 -13 51 -28 65 -35 56 -26 67 -31 115 -59
28 -16 68 -38 90 -50 124 -64 207 -110 231 -129 15 -12 33 -21 40 -21 7 0 18
-9 24 -20 6 -10 28 -24 50 -30 22 -6 40 -14 40 -19 0 -4 17 -16 38 -25 20 -9
60 -29 87 -44 28 -16 59 -33 70 -38 11 -6 34 -18 50 -27 17 -9 46 -24 65 -33
19 -9 45 -25 59 -35 13 -10 31 -19 41 -19 9 0 25 -9 34 -19 10 -11 31 -23 46
-26 16 -3 33 -12 39 -19 6 -8 31 -21 56 -31 25 -9 45 -20 45 -25 0 -5 17 -14
38 -20 20 -7 46 -20 57 -29 11 -10 52 -33 90 -51 39 -19 76 -40 83 -47 7 -7
25 -16 40 -19 15 -4 36 -15 47 -24 11 -10 31 -21 44 -25 12 -4 39 -18 58 -31
20 -13 39 -24 44 -24 16 0 95 -59 139 -105 l45 -46 0 -102 c0 -98 -1 -104 -30
-141 -29 -39 -114 -107 -157 -127 -13 -6 -45 -23 -73 -39 -27 -15 -77 -42
-110 -59 -34 -16 -77 -41 -96 -54 -20 -14 -53 -30 -73 -37 -20 -6 -36 -16 -36
-21 0 -5 -8 -12 -17 -16 -35 -12 -78 -33 -118 -58 -22 -13 -56 -31 -75 -40
-19 -8 -42 -20 -50 -25 -8 -6 -33 -20 -55 -31 -22 -12 -62 -34 -90 -49 -27
-16 -68 -38 -90 -50 -22 -11 -62 -33 -90 -49 -27 -16 -66 -37 -85 -46 -19 -8
-41 -22 -50 -29 -8 -8 -26 -17 -40 -21 -13 -4 -36 -17 -51 -27 -14 -11 -44
-22 -67 -25 l-41 -6 -273 276 c-150 152 -353 357 -452 457 l-179 182 -1435
-1434 c-790 -788 -1439 -1436 -1442 -1440 -3 -4 -18 -12 -34 -18 -77 -29 -146
52 -167 199 -18 129 -6 2273 27 4599 l7 492 32 0 c24 0 41 10 71 40 39 39 40
40 115 40 68 0 78 3 99 25 28 30 70 33 95 5 16 -18 20 -18 46 -4 37 19 40 54
4 54 -19 0 -25 5 -25 21 0 12 -8 23 -20 26 -11 3 -20 11 -20 19 0 7 -11 21
-25 30 -14 9 -25 22 -25 29 0 6 -11 17 -25 23 -14 6 -25 18 -25 26 0 8 -9 18
-20 21 -11 3 -20 10 -20 15 0 5 -22 31 -50 58 -27 27 -50 54 -50 61 0 6 -9 11
-19 11 -32 0 -51 11 -51 29 0 29 48 40 159 37 82 -3 109 -8 130 -23z m-299
-52 c0 -5 -7 -14 -15 -21 -13 -10 -15 -9 -15 9 0 12 6 21 15 21 8 0 15 -4 15
-9z m-60 -53 c0 -7 -5 -20 -10 -28 -8 -12 -10 -9 -10 13 0 15 5 27 10 27 6 0
10 -6 10 -12z m9322 -597 c114 -9 260 -37 348 -67 25 -8 66 -21 92 -29 51 -14
92 -32 227 -98 79 -39 119 -62 195 -113 16 -10 36 -23 45 -29 45 -27 220 -180
229 -200 10 -22 -2 -37 -173 -210 -208 -210 -193 -203 -278 -132 -59 49 -103
81 -142 103 -16 9 -35 23 -43 30 -7 8 -19 14 -26 14 -7 0 -27 11 -46 25 -19
14 -41 25 -50 25 -8 0 -36 11 -62 25 -26 14 -55 25 -65 25 -10 0 -38 9 -62 20
-24 11 -80 25 -125 31 -44 6 -115 15 -156 21 -102 14 -151 14 -245 0 -44 -6
-113 -16 -153 -21 -91 -13 -228 -58 -340 -114 -96 -47 -240 -139 -289 -184
-17 -16 -48 -44 -69 -63 -21 -18 -64 -65 -97 -104 -33 -39 -62 -73 -66 -76
-17 -13 -88 -130 -120 -196 -10 -23 -24 -45 -29 -48 -6 -3 -14 -21 -17 -39 -4
-17 -14 -45 -23 -62 -8 -16 -21 -52 -28 -80 -7 -27 -19 -68 -28 -91 -53 -144
-53 -604 0 -748 9 -23 21 -66 29 -96 8 -30 23 -73 35 -95 11 -21 20 -44 20
-51 0 -6 7 -17 14 -24 8 -6 20 -28 27 -48 7 -20 20 -48 29 -62 9 -14 30 -45
46 -70 57 -89 195 -238 312 -338 46 -40 153 -105 237 -146 44 -21 96 -46 115
-56 19 -9 53 -21 75 -25 21 -4 52 -13 67 -21 40 -21 236 -44 373 -44 160 0
303 16 396 46 42 13 84 24 93 24 9 0 34 9 54 19 20 11 69 34 107 52 39 17 83
42 98 55 16 13 33 24 39 24 14 0 125 93 204 170 65 63 164 203 179 251 4 13
16 38 26 55 11 17 19 40 19 50 0 11 9 35 19 55 10 19 24 66 30 104 6 39 13 84
17 101 5 25 1 37 -15 53 -21 21 -24 21 -634 21 -463 0 -616 3 -625 12 -17 17
-17 486 0 523 l11 25 903 0 c876 0 904 -1 913 -19 47 -88 34 -663 -18 -819
-12 -34 -21 -73 -21 -87 0 -14 -7 -42 -16 -63 -9 -20 -23 -59 -31 -86 -13 -43
-78 -182 -138 -295 -29 -53 -185 -253 -244 -312 -33 -32 -198 -169 -231 -192
-14 -9 -47 -32 -75 -52 -27 -19 -55 -35 -61 -35 -6 0 -22 -8 -35 -19 -13 -10
-35 -22 -49 -26 -14 -4 -36 -15 -49 -24 -34 -22 -129 -61 -176 -72 -22 -5 -61
-18 -87 -29 -26 -11 -59 -20 -75 -20 -15 0 -59 -9 -98 -20 -104 -30 -381 -44
-589 -31 -91 6 -178 16 -193 22 -15 6 -66 17 -112 25 -47 9 -96 21 -110 28
-14 7 -48 18 -75 25 -27 7 -58 19 -70 27 -11 7 -27 14 -35 14 -15 0 -215 98
-303 149 -25 14 -64 40 -85 57 -21 17 -49 37 -63 44 -90 46 -387 346 -452 456
-10 16 -32 50 -50 76 -53 76 -78 118 -84 143 -3 13 -12 29 -19 35 -8 7 -19 28
-26 48 -6 20 -17 44 -24 52 -7 8 -16 26 -19 40 -4 14 -15 45 -25 70 -32 77
-69 203 -76 255 -4 28 -14 73 -23 100 -14 42 -17 96 -17 345 0 215 3 305 13
331 7 20 19 72 26 115 8 44 22 102 32 129 59 171 94 257 130 325 8 14 21 40
30 59 8 18 23 45 33 60 10 14 42 62 71 106 29 44 77 109 107 145 87 107 295
303 379 360 12 8 48 32 80 54 33 21 70 46 84 55 69 46 325 162 397 180 21 5
58 17 83 25 192 65 475 89 772 67z m11156 -203 c16 -16 18 -3729 2 -3759 -10
-18 -24 -19 -278 -19 -195 0 -271 3 -280 12 -9 9 -12 442 -12 1888 0 1032 3
1880 7 1883 3 4 128 7 278 7 197 0 274 -3 283 -12z m5662 -6 c19 -6 67 -20
105 -31 125 -36 235 -83 335 -143 45 -28 188 -143 220 -179 75 -82 114 -131
146 -185 19 -32 40 -66 45 -74 10 -15 26 -52 58 -130 10 -25 29 -83 42 -130
22 -77 24 -104 24 -295 -1 -170 -4 -217 -17 -246 -9 -20 -19 -56 -23 -80 -4
-24 -18 -64 -31 -89 -13 -25 -24 -52 -24 -62 0 -9 -5 -20 -11 -24 -6 -3 -19
-25 -28 -48 -10 -23 -26 -47 -35 -55 -9 -7 -16 -19 -16 -26 0 -7 -7 -18 -15
-25 -9 -7 -35 -39 -60 -72 -69 -92 -227 -217 -360 -285 -107 -55 -172 -83
-189 -83 -9 0 -42 -9 -74 -21 -93 -33 -194 -41 -635 -47 l-419 -7 -19 -24
c-18 -22 -19 -49 -19 -696 0 -558 -2 -674 -14 -684 -9 -8 -94 -11 -287 -9
l-274 3 -6 30 c-12 55 -10 3694 2 3716 10 20 20 20 777 16 540 -2 777 -7 802
-15z m2034 12 c15 -6 16 -180 16 -1873 0 -1026 -4 -1872 -8 -1879 -7 -9 -72
-12 -292 -10 l-284 3 -13 25 c-10 20 -13 403 -13 1872 0 1749 1 1848 18 1857
18 11 549 16 576 5z m1786 -1064 c69 -5 144 -16 167 -24 23 -8 63 -18 90 -22
55 -8 163 -49 243 -93 30 -17 71 -39 90 -48 47 -23 177 -131 217 -179 81 -99
114 -145 133 -185 11 -24 24 -51 29 -59 42 -67 82 -203 101 -350 7 -47 9 -388
8 -905 l-3 -830 -282 -3 c-246 -2 -283 0 -297 14 -13 12 -16 39 -16 130 l0
114 -28 0 c-20 0 -32 -8 -45 -30 -17 -28 -119 -120 -182 -164 -57 -40 -215
-108 -280 -120 -161 -32 -446 -22 -585 21 -78 23 -173 61 -210 84 -8 5 -37 21
-65 35 -56 30 -235 204 -282 275 -47 71 -79 148 -108 261 -23 91 -26 121 -23
219 4 123 25 224 64 305 13 28 24 55 24 61 0 5 9 21 21 34 11 13 41 53 67 89
49 67 169 175 236 213 100 56 182 97 194 97 7 0 30 9 50 19 20 11 66 27 102
36 36 9 85 21 110 27 29 8 140 12 310 12 261 0 266 -1 343 -27 43 -15 85 -27
95 -27 9 0 40 -12 67 -25 102 -50 131 -31 108 70 -38 165 -125 265 -311 354
-154 73 -461 80 -588 12 -21 -12 -42 -21 -45 -21 -4 0 -30 -16 -59 -35 -48
-32 -109 -96 -131 -136 -12 -23 -66 -52 -74 -40 -3 5 -19 13 -37 16 -17 4 -51
18 -76 31 -25 13 -51 24 -58 24 -7 0 -34 11 -60 25 -26 14 -54 25 -63 25 -9 0
-26 6 -37 14 -11 8 -45 24 -74 35 -74 28 -100 55 -90 91 5 16 13 35 19 42 6 7
30 41 52 75 39 59 166 193 227 239 39 30 209 124 224 124 7 0 36 11 63 25 28
13 60 25 73 25 12 0 51 9 85 21 96 32 294 44 497 29z m1970 -182 c16 -22 30
-48 30 -57 0 -9 9 -34 20 -56 11 -21 25 -54 31 -74 7 -20 20 -52 30 -71 11
-19 19 -40 19 -47 0 -6 11 -33 25 -59 14 -26 25 -54 25 -63 0 -9 7 -27 16 -40
9 -13 22 -42 30 -65 7 -22 29 -79 49 -126 20 -47 43 -103 51 -124 8 -22 18
-44 23 -50 5 -6 14 -31 21 -56 7 -25 18 -52 25 -60 7 -8 18 -35 25 -60 7 -25
18 -52 25 -60 7 -8 18 -35 25 -59 6 -24 18 -54 25 -65 7 -12 18 -37 24 -57 6
-20 20 -53 31 -74 11 -22 20 -46 20 -53 0 -8 8 -29 19 -46 10 -17 22 -42 26
-56 3 -14 15 -43 25 -65 10 -22 24 -55 31 -73 13 -35 42 -57 64 -48 8 3 17 22
21 43 3 21 12 48 20 59 13 21 40 92 70 184 9 25 24 63 34 85 10 22 30 74 46
115 15 41 38 99 51 129 12 29 23 61 23 70 0 9 9 30 19 47 10 17 22 46 26 65 4
19 15 48 25 65 10 17 21 46 25 64 4 18 17 55 29 84 13 28 35 85 51 126 15 41
36 93 46 116 10 23 19 47 19 55 0 8 12 37 25 64 14 28 25 57 25 65 0 8 12 38
25 65 14 28 25 56 25 63 0 7 14 42 30 77 l30 65 324 0 c349 0 356 -1 341 -52
-7 -25 -45 -112 -74 -168 -10 -19 -22 -49 -25 -67 -4 -17 -13 -37 -21 -43 -8
-6 -17 -26 -21 -43 -3 -18 -15 -48 -24 -67 -41 -79 -70 -142 -70 -153 0 -11
-47 -116 -80 -179 -11 -20 -20 -42 -20 -49 0 -11 -17 -51 -76 -174 -13 -27
-27 -62 -30 -77 -3 -15 -12 -32 -19 -38 -8 -6 -17 -26 -21 -43 -3 -17 -26 -73
-50 -123 -24 -51 -44 -95 -44 -100 0 -8 -51 -120 -80 -176 -11 -20 -20 -46
-20 -56 0 -11 -9 -30 -19 -44 -11 -13 -23 -38 -27 -54 -4 -16 -15 -45 -25 -64
-10 -19 -32 -69 -49 -110 -17 -41 -39 -93 -49 -115 -11 -22 -34 -74 -51 -115
-17 -41 -42 -98 -56 -125 -13 -28 -24 -58 -24 -66 0 -9 -6 -22 -14 -28 -8 -7
-17 -24 -21 -39 -6 -25 -16 -49 -80 -185 -14 -30 -25 -57 -25 -61 0 -7 -35
-87 -70 -161 -11 -22 -33 -74 -50 -115 -17 -41 -37 -88 -45 -105 -7 -16 -30
-68 -50 -115 -19 -47 -44 -101 -54 -120 -10 -19 -22 -49 -25 -67 -4 -17 -13
-37 -21 -43 -8 -6 -17 -26 -21 -43 -3 -18 -15 -48 -25 -67 -29 -57 -67 -143
-75 -169 -3 -13 -18 -45 -33 -70 l-27 -46 -301 -3 c-255 -2 -302 0 -313 12
-15 19 -5 66 19 98 10 13 21 34 25 48 4 14 27 66 50 115 116 242 193 407 225
480 13 28 27 58 32 68 22 42 29 55 52 107 26 57 64 139 116 251 17 37 31 74
31 84 0 25 -31 118 -45 135 -7 8 -16 26 -20 40 -4 14 -18 50 -32 80 -54 121
-75 167 -92 200 -10 19 -21 48 -25 64 -4 16 -16 41 -27 54 -10 14 -19 32 -19
40 0 15 -7 32 -66 157 -12 28 -37 84 -54 125 -17 41 -42 98 -56 125 -13 28
-24 53 -24 57 0 4 -20 50 -45 102 -25 53 -45 99 -45 102 0 4 -11 30 -24 58
-59 127 -74 163 -81 186 -4 14 -13 32 -20 40 -7 8 -16 26 -20 40 -8 27 -42
104 -81 185 -13 28 -24 56 -24 64 0 7 -9 24 -20 38 -11 14 -20 36 -20 48 0 12
-9 33 -19 47 -11 13 -23 38 -27 54 -4 16 -15 45 -25 64 -10 19 -29 60 -43 90
-89 196 -108 250 -94 267 8 10 83 13 319 13 l309 0 30 -42z m-19115 3 c319
-67 544 -196 745 -427 75 -86 200 -296 200 -335 0 -8 7 -25 17 -38 9 -13 22
-49 28 -80 7 -31 21 -85 30 -121 15 -53 18 -105 18 -275 -1 -115 -5 -228 -11
-250 -41 -163 -55 -211 -62 -220 -4 -5 -13 -28 -20 -50 -7 -22 -18 -47 -25
-55 -7 -8 -16 -26 -20 -40 -15 -51 -147 -232 -230 -315 -37 -36 -129 -114
-169 -141 -81 -55 -226 -130 -271 -140 -16 -3 -40 -13 -53 -21 -12 -7 -48 -18
-80 -24 -31 -6 -77 -17 -102 -26 -57 -19 -329 -29 -420 -15 -109 17 -253 52
-296 72 -22 11 -45 20 -52 20 -16 0 -199 96 -234 123 -158 120 -240 198 -298
282 -14 20 -36 51 -50 69 -29 38 -107 193 -140 280 -29 74 -58 221 -70 351
-16 163 16 412 70 552 70 181 106 243 236 401 78 95 154 164 259 234 55 37
237 128 255 128 8 0 29 7 45 16 17 8 75 25 130 36 55 11 116 24 135 28 19 4
94 8 165 9 108 1 154 -4 270 -28z m2737 18 c24 -5 84 -18 133 -29 99 -20 190
-50 246 -80 20 -11 43 -20 50 -20 7 0 30 -11 51 -25 21 -14 57 -37 81 -52 62
-40 189 -146 228 -191 79 -91 114 -134 135 -169 47 -79 134 -261 140 -294 4
-19 13 -47 21 -63 19 -37 48 -258 48 -366 0 -239 -65 -492 -169 -665 -14 -22
-34 -56 -44 -75 -49 -86 -249 -282 -362 -354 -25 -16 -56 -37 -70 -46 -14 -10
-37 -21 -50 -25 -14 -4 -39 -16 -56 -26 -17 -11 -38 -19 -45 -19 -8 0 -31 -9
-52 -20 -38 -20 -171 -52 -302 -71 -91 -14 -357 -5 -410 14 -22 8 -60 17 -85
21 -127 19 -385 147 -485 239 -16 16 -46 39 -67 52 -20 13 -50 41 -67 62 -135
167 -152 190 -183 253 -10 19 -22 42 -27 50 -20 33 -59 130 -84 210 -72 228
-72 557 -1 790 24 78 63 174 85 210 5 8 18 33 28 55 10 22 26 46 35 54 9 7 16
17 16 22 0 28 189 231 280 302 83 65 239 149 345 187 33 11 114 32 180 46 65
14 121 27 124 29 9 10 292 5 333 -6z m2849 -8 c41 -10 91 -21 112 -25 21 -4
57 -17 81 -30 24 -13 52 -26 62 -29 38 -13 157 -88 187 -120 11 -10 29 -17 40
-15 18 2 22 11 25 48 4 70 10 86 37 98 37 17 496 17 513 0 9 -9 12 -302 11
-1262 0 -688 -4 -1276 -9 -1306 -17 -118 -50 -271 -63 -297 -8 -16 -17 -42
-20 -60 -11 -59 -111 -247 -168 -318 -81 -100 -189 -200 -279 -258 -42 -27
-163 -87 -176 -87 -5 0 -31 -9 -59 -19 -126 -49 -223 -64 -426 -69 -163 -3
-206 -1 -260 13 -35 9 -94 23 -131 30 -37 8 -77 20 -90 29 -13 8 -42 19 -64
25 -23 6 -47 18 -54 26 -7 8 -18 15 -25 15 -22 0 -194 121 -265 187 -78 72
-196 222 -238 303 -7 14 -22 41 -33 60 -29 52 -25 75 18 105 21 14 45 25 53
25 8 0 31 8 50 19 19 10 53 24 75 31 22 7 49 19 60 25 11 7 38 18 60 25 22 7
47 18 55 25 20 17 68 27 90 20 11 -3 29 -23 41 -43 112 -188 222 -289 389
-359 107 -44 343 -53 445 -16 22 8 59 21 81 28 48 15 132 71 187 124 38 37
127 160 127 177 0 5 9 26 20 47 28 52 42 147 47 323 l5 151 -24 7 c-16 4 -28
0 -40 -15 -31 -37 -158 -119 -208 -134 -14 -4 -32 -13 -40 -20 -16 -14 -137
-48 -230 -66 -66 -13 -322 -5 -365 11 -16 6 -59 17 -95 25 -36 8 -83 23 -105
35 -21 11 -45 20 -51 20 -11 0 -39 14 -169 86 -16 9 -64 44 -105 78 -41 34
-84 68 -96 76 -21 15 -116 125 -146 170 -10 14 -32 45 -49 70 -43 61 -139 250
-139 275 0 11 -10 40 -21 65 -63 139 -62 626 2 766 10 24 19 50 19 60 0 16 93
209 133 274 68 113 246 296 357 367 30 20 67 44 81 54 15 10 42 25 60 34 19 8
45 22 59 30 14 8 34 15 45 15 11 0 31 7 43 16 12 8 64 24 115 34 50 10 103 23
117 29 45 18 259 13 341 -8z m3842 -2 c137 -31 260 -73 296 -101 13 -10 28
-18 34 -18 21 0 157 -99 228 -165 69 -64 189 -212 210 -259 7 -14 15 -26 20
-26 4 0 14 -17 23 -37 9 -21 23 -49 31 -63 24 -43 65 -138 65 -152 0 -8 9 -31
20 -53 11 -22 20 -54 20 -72 0 -30 -4 -33 -42 -44 -24 -6 -50 -17 -58 -24 -8
-7 -28 -17 -45 -20 -16 -4 -52 -18 -80 -30 -27 -13 -72 -32 -100 -43 -81 -34
-165 -69 -242 -101 -39 -17 -77 -31 -85 -31 -7 0 -22 -7 -33 -16 -11 -8 -38
-19 -60 -25 -22 -6 -47 -17 -55 -24 -8 -7 -34 -18 -58 -25 -24 -6 -58 -20 -75
-31 -18 -10 -39 -19 -47 -19 -8 0 -36 -11 -62 -25 -26 -14 -55 -25 -65 -25
-10 0 -28 -7 -40 -15 -12 -9 -42 -22 -65 -30 -24 -9 -56 -21 -73 -29 -68 -31
-152 -65 -175 -72 -14 -3 -32 -12 -40 -19 -8 -7 -37 -19 -65 -27 -27 -8 -69
-26 -92 -41 -41 -26 -42 -28 -31 -59 13 -39 125 -174 171 -206 72 -50 106 -70
143 -82 22 -7 51 -19 66 -26 74 -38 345 -34 432 6 25 11 50 20 56 20 19 0 124
63 180 108 30 25 81 75 113 113 35 42 66 69 77 69 11 0 45 -17 76 -37 70 -47
172 -115 254 -170 35 -23 67 -44 72 -45 5 -2 11 -19 14 -39 6 -32 1 -42 -50
-101 -72 -85 -107 -120 -183 -182 -97 -80 -114 -91 -188 -131 -39 -20 -74 -40
-80 -45 -5 -4 -30 -13 -55 -20 -25 -6 -55 -18 -67 -26 -25 -16 -176 -52 -278
-66 -38 -5 -135 -8 -215 -5 -152 5 -252 24 -395 75 -115 41 -180 75 -311 163
-59 40 -242 227 -282 289 -19 30 -46 71 -59 91 -12 19 -23 42 -23 50 0 8 -8
26 -17 39 -21 29 -60 127 -74 185 -5 22 -19 69 -31 105 -20 60 -22 85 -22 310
0 226 2 250 22 308 12 34 22 71 22 83 0 11 11 48 24 82 14 34 28 76 32 92 4
17 15 41 26 54 10 13 18 28 18 34 0 6 12 29 27 51 14 23 38 59 52 81 70 109
183 227 277 289 32 21 70 46 84 55 74 49 239 115 345 137 44 9 96 20 115 24
78 17 277 11 373 -11z"/>
<path d="M21515 11821 c-54 -8 -171 -47 -195 -66 -8 -6 -30 -18 -48 -25 -61
-24 -229 -208 -247 -270 -4 -14 -14 -36 -22 -49 -18 -28 -42 -148 -50 -241 -6
-83 26 -253 63 -335 36 -78 88 -148 157 -210 77 -70 111 -94 149 -107 18 -6
42 -17 54 -25 11 -7 69 -20 129 -28 97 -14 119 -14 211 0 215 32 387 162 484
365 40 82 51 137 57 280 6 142 -8 231 -54 328 -48 102 -84 153 -158 219 -139
125 -350 190 -530 164z"/>
<path d="M31166 8235 c-14 -15 -16 -70 -16 -576 0 -550 0 -559 20 -579 20 -20
29 -21 418 -17 218 3 424 9 457 14 63 11 157 52 214 94 74 53 191 186 191 216
0 3 11 29 24 57 31 64 61 227 48 253 -5 10 -12 42 -16 72 -6 46 -39 136 -64
177 -36 57 -67 96 -108 136 -52 50 -150 118 -171 118 -7 0 -32 10 -55 23 -42
22 -49 22 -484 25 -399 3 -443 2 -458 -13z"/>
<path d="M35815 6304 c-70 -7 -218 -46 -271 -70 -28 -13 -53 -24 -56 -24 -15
0 -110 -71 -136 -101 -16 -19 -42 -59 -57 -89 -25 -47 -29 -67 -29 -140 -1
-73 3 -91 23 -125 57 -95 123 -144 256 -191 70 -25 94 -28 190 -28 97 0 121 4
203 32 92 32 103 37 197 98 57 37 168 150 206 209 42 65 76 146 89 208 10 50
9 61 -5 83 -9 14 -28 30 -43 35 -15 6 -51 22 -80 35 -29 13 -62 24 -75 24 -12
0 -52 9 -89 19 -66 19 -244 33 -323 25z"/>
<path d="M18415 7070 c-65 -18 -143 -50 -200 -81 -65 -35 -193 -157 -241 -229
-37 -56 -94 -172 -94 -192 0 -8 -9 -44 -21 -80 -17 -56 -20 -85 -16 -199 4
-145 23 -231 72 -334 106 -225 337 -400 560 -425 133 -14 250 4 380 61 97 42
246 167 286 239 11 19 33 57 49 83 17 27 44 89 60 139 28 85 30 100 30 251 0
144 -2 167 -26 241 -14 44 -31 90 -37 101 -6 11 -20 38 -30 60 -51 103 -178
232 -282 286 -16 8 -39 20 -50 27 -11 6 -55 23 -97 37 -66 21 -93 25 -195 24
-65 -1 -131 -5 -148 -9z"/>
<path d="M21220 7064 c-19 -9 -56 -22 -82 -29 -44 -12 -157 -79 -220 -131 -34
-27 -128 -140 -128 -152 0 -5 -8 -20 -19 -33 -48 -62 -92 -214 -108 -377 -11
-120 50 -376 108 -451 11 -13 19 -28 19 -33 0 -14 133 -156 190 -202 27 -22
127 -76 141 -76 8 0 32 -10 54 -22 37 -21 53 -23 205 -23 147 0 170 2 210 21
25 12 58 24 74 28 15 4 40 15 55 25 94 63 125 86 150 109 45 43 131 152 131
166 0 7 9 25 20 39 11 14 20 31 20 39 0 7 10 31 21 53 13 25 28 87 40 167 17
119 18 135 4 215 -8 47 -15 97 -15 111 0 14 -9 44 -19 66 -10 23 -24 58 -31
78 -6 20 -18 42 -26 48 -7 7 -14 17 -14 22 0 17 -62 98 -117 152 -85 86 -169
136 -296 177 -78 26 -102 29 -210 29 -89 -1 -132 -5 -157 -16z"/>
<path d="M24083 7052 c-45 -16 -88 -33 -95 -39 -7 -6 -29 -18 -48 -27 -72 -33
-158 -111 -216 -196 -66 -97 -84 -127 -84 -141 0 -8 -9 -30 -19 -50 -46 -86
-64 -329 -35 -469 34 -166 97 -283 214 -400 87 -86 143 -121 271 -169 108 -41
321 -43 409 -3 25 11 56 23 69 27 24 7 84 43 111 67 9 7 34 29 57 48 129 110
215 284 238 483 14 116 11 214 -11 332 -10 59 -85 220 -135 292 -39 55 -156
162 -196 179 -17 8 -34 18 -37 23 -4 5 -30 17 -59 27 -28 9 -58 22 -66 28 -8
6 -70 12 -150 13 -127 3 -142 1 -218 -25z"/>
<path d="M27944 7081 c-28 -5 -62 -15 -75 -24 -13 -8 -37 -18 -54 -21 -43 -10
-191 -113 -237 -166 -111 -125 -177 -283 -190 -453 -2 -37 0 -42 20 -45 12 -2
32 4 44 12 12 9 29 16 38 16 9 0 33 9 55 20 21 11 54 25 74 31 20 6 45 17 56
24 11 6 38 18 60 25 22 7 56 21 75 31 19 11 41 19 49 19 7 0 28 9 45 19 17 11
51 25 76 31 25 7 52 18 60 25 8 7 26 16 40 19 23 6 81 30 185 76 22 10 51 21
64 25 14 4 38 16 55 26 17 11 39 19 48 19 32 0 67 23 77 50 8 25 4 33 -42 81
-63 66 -103 94 -191 131 -58 25 -85 30 -175 33 -58 2 -129 0 -157 -4z"/>
</g>
</svg>
