<?xml version="1.0" standalone="no"?>
<!DOCTYPE svg PUBLIC "-//W3C//DTD SVG 20010904//EN"
 "http://www.w3.org/TR/2001/REC-SVG-20010904/DTD/svg10.dtd">
<svg version="1.0" xmlns="http://www.w3.org/2000/svg"
 width="1050.000000pt" height="375.000000pt" viewBox="0 0 1050.000000 375.000000"
 preserveAspectRatio="xMidYMid meet">

<g transform="translate(0.000000,375.000000) scale(0.100000,-0.100000)"
fill="#000000" stroke="none">
<path d="M600 3529 c-206 -27 -358 -152 -417 -344 -17 -57 -18 -127 -18 -1305
0 -1185 1 -1248 19 -1313 46 -169 190 -302 366 -339 92 -19 9313 -20 9404 -1
177 38 324 179 367 353 21 81 21 2519 0 2600 -31 126 -136 257 -247 309 -112
53 123 51 -4819 50 -2525 -1 -4619 -5 -4655 -10z m1203 -515 c99 -34 127 -106
127 -330 0 -129 -2 -153 -16 -158 -43 -17 -44 -14 -44 152 0 144 -2 162 -22
202 -41 80 -121 98 -266 61 -74 -19 -108 -36 -150 -75 -51 -46 -57 -69 -62
-266 l-5 -185 -27 -3 -28 -3 0 185 c0 161 3 192 20 239 35 92 106 142 252 176
104 24 162 25 221 5z m353 -186 c27 -26 44 -101 44 -189 0 -59 0 -59 -30 -59
l-30 0 0 69 c0 78 -14 127 -40 141 -10 6 -39 10 -64 10 -25 0 -46 3 -46 8 0 4
-3 17 -6 29 -5 20 -2 22 37 25 63 4 109 -7 135 -34z m-344 -38 c4 -27 0 -33
-40 -56 -56 -33 -72 -71 -72 -169 0 -72 -1 -76 -26 -85 -14 -6 -27 -10 -30
-10 -2 0 -4 42 -4 93 1 142 25 191 115 233 28 13 51 24 51 24 1 0 4 -14 6 -30z
m6256 -97 c3 -31 2 -32 -38 -31 -62 1 -83 -25 -88 -107 l-4 -65 56 0 c56 0 56
0 56 -30 0 -30 -1 -30 -55 -30 l-55 0 0 -205 0 -205 -35 0 -35 0 -2 203 -3
202 -37 3 c-34 3 -38 6 -38 32 0 26 4 29 38 32 l37 3 5 72 c4 51 11 80 26 100
29 39 81 64 129 61 37 -3 40 -5 43 -35z m-2118 -324 l0 -350 -37 3 -38 3 -3
335 c-1 184 0 341 3 347 2 7 20 13 40 13 l35 0 0 -351z m1538 -1 l2 -348 -40
0 c-39 0 -40 1 -40 37 l0 37 -27 -27 c-61 -57 -146 -72 -218 -37 -53 26 -82
65 -101 141 -16 63 -14 118 8 189 41 134 206 189 308 104 l30 -26 0 142 0 141
38 -3 37 -3 3 -347z m-3647 292 c109 -33 164 -94 188 -208 39 -185 -38 -342
-198 -403 -43 -17 -86 -23 -188 -27 l-133 -5 0 332 0 331 134 0 c105 0 148 -4
197 -20z m-1226 -131 c61 -23 131 -48 157 -57 l48 -16 2 -804 3 -805 -40 -17
c-22 -9 -96 -37 -165 -60 l-126 -44 -264 53 c-146 29 -308 61 -360 72 -52 10
-151 30 -220 44 -69 14 -170 34 -225 46 -55 11 -145 29 -200 39 -186 35 -350
71 -358 79 -4 4 -6 272 -5 597 l3 589 800 161 c440 89 809 162 820 163 11 0
70 -18 130 -40z m1845 -49 c78 -40 112 -107 112 -218 0 -139 -76 -234 -200
-249 -102 -12 -202 43 -237 129 -22 55 -22 172 0 224 51 122 204 176 325 114z
m1200 5 c67 -34 80 -82 80 -297 l0 -168 -34 0 -34 0 -4 168 c-3 129 -8 174
-20 198 -40 75 -150 70 -198 -9 -18 -28 -20 -51 -20 -194 l0 -163 -40 0 -40 0
0 235 0 235 40 0 c38 0 40 -1 40 -31 l0 -31 35 31 c20 17 48 33 63 37 15 3 32
7 37 9 15 5 67 -6 95 -20z m740 -5 c91 -47 136 -161 110 -283 -22 -110 -99
-176 -215 -184 -51 -4 -68 -1 -115 24 -82 42 -112 91 -118 190 -5 95 9 152 50
199 70 80 193 103 288 54z m485 1 c61 -35 70 -66 73 -273 l4 -188 -41 0 c-40
0 -41 0 -41 36 l0 37 -20 -26 c-45 -57 -161 -72 -219 -29 -40 30 -52 61 -48
126 3 52 7 62 39 91 35 33 43 35 207 60 l43 7 -6 37 c-12 80 -97 104 -192 56
-27 -14 -50 -25 -51 -25 -2 0 -3 16 -3 35 0 39 11 47 92 70 60 16 119 11 163
-14z m1866 -2 c47 -23 85 -69 99 -117 13 -50 13 -161 -2 -203 -50 -147 -246
-196 -366 -93 -117 100 -99 331 32 405 75 42 164 46 237 8z m481 21 c21 -6 50
-26 68 -47 l32 -36 21 26 c38 43 74 60 133 60 63 0 97 -19 129 -74 18 -30 20
-56 23 -221 l4 -188 -40 0 -41 0 -3 186 -3 186 -28 24 c-40 34 -87 32 -131 -7
-48 -41 -56 -78 -56 -246 l0 -143 -35 0 -35 0 0 148 c0 81 -5 165 -10 187 -24
105 -144 114 -195 15 -11 -22 -15 -67 -15 -190 l0 -160 -40 0 -40 0 0 235 0
235 40 0 c38 0 40 -1 40 -32 l0 -32 33 31 c26 25 67 45 107 52 3 1 22 -4 42
-9z m-862 -39 l0 -39 -40 5 c-47 7 -81 -12 -110 -60 -18 -28 -20 -51 -20 -189
l0 -158 -40 0 -40 0 0 235 0 235 40 0 40 0 1 -42 c0 -34 2 -38 9 -22 16 41 68
74 116 74 l44 0 0 -39z m-3666 12 c2 -10 24 -90 47 -178 23 -88 44 -167 46
-175 3 -8 30 71 62 175 l57 190 36 3 c42 4 34 22 100 -222 l42 -159 17 59 c9
32 32 118 51 189 l35 130 37 3 c32 3 37 1 33 -15 -10 -36 -80 -270 -107 -358
-27 -87 -29 -90 -60 -93 -18 -2 -36 0 -41 5 -9 9 -99 316 -99 338 0 43 -20 -2
-64 -143 -66 -216 -59 -202 -100 -202 l-35 0 -27 88 c-14 48 -36 121 -49 162
-13 41 -31 101 -39 132 -9 32 -19 64 -22 73 -5 12 2 15 34 15 30 0 42 -5 46
-17z m796 -1268 l0 -345 -35 0 c-32 0 -35 2 -35 30 0 37 -4 37 -40 1 -43 -43
-114 -57 -182 -37 -92 26 -137 100 -138 222 0 149 69 243 192 260 50 7 133
-22 144 -50 16 -43 24 -3 24 124 l0 140 35 0 35 0 0 -345z m-1052 323 c7 -7
12 -21 12 -33 0 -29 -19 -45 -52 -45 -25 0 -48 23 -48 49 0 33 63 54 88 29z
m3280 -14 c19 -5 22 -13 22 -50 l0 -45 -27 14 c-108 55 -223 10 -223 -85 0
-49 27 -78 125 -135 70 -41 123 -89 144 -130 6 -12 11 -44 11 -71 0 -124 -128
-193 -289 -157 l-71 17 0 49 0 50 28 -20 c55 -39 170 -47 218 -14 19 13 34 50
34 84 0 37 -54 95 -118 128 -113 58 -162 117 -162 194 0 67 25 114 79 148 40
26 54 29 125 29 45 0 91 -3 104 -6z m-4182 -89 c12 -44 36 -129 53 -190 17
-60 41 -148 53 -194 12 -46 23 -80 25 -75 37 126 153 535 153 539 0 3 18 5 39
5 46 0 32 35 126 -317 33 -123 62 -223 65 -223 3 0 11 24 18 53 6 28 30 120
52 202 22 83 47 180 56 218 l16 67 45 0 c39 0 44 -2 38 -17 -3 -10 -16 -52
-27 -93 -11 -41 -44 -158 -73 -260 -29 -102 -58 -206 -65 -232 l-13 -48 -46 0
-47 0 -31 108 c-35 120 -86 304 -104 372 l-12 45 -12 -45 c-7 -25 -29 -106
-50 -180 -20 -74 -49 -172 -62 -218 l-26 -83 -46 3 -46 3 -33 115 c-83 290
-115 399 -133 454 -10 33 -19 64 -19 69 0 4 19 7 43 5 l42 -3 21 -80z m4424
-30 l0 -64 58 -3 c56 -3 57 -3 57 -33 0 -30 -1 -30 -57 -33 l-58 -3 0 -159 c0
-158 0 -160 24 -176 14 -9 39 -14 58 -12 29 3 33 0 36 -24 2 -20 -2 -28 -19
-33 -37 -12 -99 -7 -124 9 -45 29 -50 52 -52 226 l-3 165 -40 3 c-38 3 -40 5
-40 38 0 34 0 34 44 34 l45 0 -6 34 c-7 46 3 83 25 89 50 13 52 10 52 -58z
m-3097 -69 c81 -34 97 -85 97 -303 l0 -163 -37 0 -38 0 0 163 c-1 172 -10 213
-54 237 -33 17 -96 12 -125 -11 -50 -39 -56 -65 -56 -234 l0 -155 -40 0 -40 0
0 236 0 235 38 -3 c34 -3 37 -6 40 -37 l3 -34 33 32 c51 49 118 63 179 37z
m1089 -18 c65 -36 102 -103 107 -195 4 -83 -14 -143 -56 -194 -50 -60 -143
-87 -232 -68 -46 9 -65 20 -102 58 -53 52 -69 96 -69 186 1 151 105 250 252
241 35 -3 73 -13 100 -28z m1081 21 c35 -9 37 -12 37 -49 l0 -39 -27 15 c-37
18 -103 18 -131 -2 -27 -19 -30 -74 -4 -97 9 -8 42 -27 73 -42 91 -42 124 -92
108 -163 -15 -68 -74 -106 -164 -105 -33 0 -72 5 -87 11 -24 10 -28 17 -28 51
l0 39 37 -19 c42 -21 120 -25 144 -6 26 19 33 55 16 81 -8 12 -44 37 -80 54
-83 41 -117 80 -117 133 0 69 30 111 97 135 46 16 77 17 126 3z m1435 -13 c38
-20 78 -65 96 -108 23 -53 21 -181 -3 -233 -43 -95 -152 -148 -255 -125 -126
28 -180 98 -181 235 0 67 4 89 26 130 27 54 85 102 140 116 45 11 143 3 177
-15z m774 14 c45 -13 93 -52 114 -92 8 -16 18 -61 21 -99 l6 -69 -168 0 -168
0 6 -36 c18 -110 137 -158 251 -100 l47 24 -3 -37 c-3 -42 -24 -55 -109 -71
-124 -24 -220 30 -253 140 -33 112 -11 219 60 287 60 58 119 74 196 53z
m-4802 -235 l0 -235 -40 0 -40 0 0 228 c0 126 3 232 7 235 3 4 21 7 40 7 l33
0 0 -235z m1769 135 c15 -52 38 -137 51 -188 13 -51 27 -89 30 -85 4 5 21 58
39 118 77 257 74 250 111 250 l34 0 39 -140 c22 -77 46 -165 55 -195 l15 -55
17 70 c30 121 81 309 86 317 3 4 21 8 40 8 31 0 34 -2 29 -22 -4 -13 -34 -117
-69 -233 l-63 -210 -41 -3 -40 -3 -25 83 c-14 46 -38 127 -53 182 l-27 98 -39
-123 c-82 -259 -69 -234 -115 -237 -39 -3 -41 -2 -50 35 -6 21 -36 121 -67
222 -31 101 -56 191 -56 198 0 10 10 13 36 11 l36 -3 27 -95z m2552 53 c0 -42
2 -45 12 -28 33 53 65 75 111 75 l46 0 0 -39 c0 -39 0 -39 -29 -31 -40 11 -89
-15 -116 -60 -17 -30 -20 -56 -24 -187 l-3 -153 -34 0 -34 0 0 235 0 235 35 0
35 0 1 -47z"/>
<path d="M7213 2424 c-55 -28 -78 -76 -78 -169 0 -90 17 -130 68 -160 40 -24
102 -23 135 2 54 40 67 69 71 158 3 73 0 89 -19 120 -39 62 -110 82 -177 49z"/>
<path d="M3590 2349 l0 -262 83 5 c102 7 156 23 201 59 68 57 99 172 76 283
-9 45 -21 69 -52 102 -50 55 -109 74 -225 74 l-83 0 0 -261z"/>
<path d="M1985 2083 c-44 -7 -134 -20 -200 -28 -66 -9 -132 -18 -147 -21 l-28
-6 0 -169 0 -169 235 0 235 0 0 199 c0 110 -3 202 -7 204 -5 2 -44 -2 -88 -10z"/>
<path d="M1455 2010 c-66 -11 -146 -22 -177 -25 l-58 -6 0 -145 0 -144 180 0
180 0 0 170 c0 94 -1 170 -2 169 -2 -1 -57 -9 -123 -19z"/>
<path d="M1220 1505 l0 -154 33 -5 c17 -3 84 -13 147 -21 63 -9 130 -18 148
-21 l32 -6 0 181 0 181 -180 0 -180 0 0 -155z"/>
<path d="M1612 1478 l3 -183 60 -8 c33 -4 134 -19 225 -33 91 -13 168 -24 173
-24 4 0 7 97 7 215 l0 215 -235 0 -235 0 2 -182z"/>
<path d="M4271 2418 c-57 -39 -73 -69 -78 -145 -4 -57 -1 -75 19 -113 13 -25
37 -53 56 -63 42 -24 123 -25 157 -3 65 43 90 147 59 243 -23 70 -54 95 -126
101 -44 3 -59 0 -87 -20z"/>
<path d="M6210 2417 c-55 -36 -75 -81 -75 -162 1 -116 55 -177 157 -177 54 0
86 17 122 66 30 39 30 176 1 226 -40 68 -140 91 -205 47z"/>
<path d="M6800 2249 c-94 -17 -117 -28 -130 -59 -25 -60 17 -115 86 -113 68 2
124 65 124 141 0 47 0 46 -80 31z"/>
<path d="M8560 2418 c-61 -42 -74 -70 -75 -156 0 -113 33 -162 120 -182 81
-18 153 28 176 113 14 52 4 141 -19 182 -37 63 -140 85 -202 43z"/>
<path d="M5200 1232 c-83 -83 -71 -260 21 -308 65 -33 152 -6 185 58 22 42 30
145 15 191 -7 20 -28 50 -47 67 -29 25 -43 30 -86 30 -45 0 -54 -4 -88 -38z"/>
<path d="M5763 1250 c-95 -57 -101 -247 -11 -313 37 -28 116 -34 161 -12 47
22 78 85 79 158 1 73 -17 120 -58 157 -29 25 -43 30 -87 30 -34 0 -63 -7 -84
-20z"/>
<path d="M8283 1249 c-100 -64 -95 -268 8 -322 44 -23 129 -19 167 10 82 60
74 261 -12 314 -42 26 -121 25 -163 -2z"/>
<path d="M9119 1243 c-26 -22 -59 -76 -59 -98 0 -3 56 -5 125 -5 l125 0 0 31
c0 22 -10 41 -34 65 -45 45 -108 48 -157 7z"/>
</g>
</svg>
